<svg width="386" height="474" viewBox="0 0 386 474" fill="none" xmlns="http://www.w3.org/2000/svg">
<path d="M6 6H380V234.884V468H6V6Z" fill="#FEFEFE" stroke="black" stroke-width="12"/>
<line x1="61" y1="96" x2="325" y2="96" stroke="black" stroke-width="12"/>
<line x1="61" y1="265" x2="325" y2="265" stroke="black" stroke-width="12"/>
<line x1="61" y1="184" x2="325" y2="184" stroke="black" stroke-width="12"/>
<path d="M289.667 447.433H279.667V333.304C279.667 332.566 279.315 331.858 278.69 331.336C278.065 330.814 277.217 330.52 276.333 330.52H249.667C248.783 330.52 247.935 330.814 247.31 331.336C246.685 331.858 246.333 332.566 246.333 333.304V447.433H233V355.573C233 354.835 232.649 354.127 232.024 353.605C231.399 353.083 230.551 352.789 229.667 352.789H203C202.116 352.789 201.268 353.083 200.643 353.605C200.018 354.127 199.667 354.835 199.667 355.573V447.433H186.333V372.275C186.333 371.537 185.982 370.829 185.357 370.307C184.732 369.784 183.884 369.491 183 369.491H156.333C155.449 369.491 154.601 369.784 153.976 370.307C153.351 370.829 153 371.537 153 372.275V447.433H139.667V388.977C139.667 388.238 139.315 387.53 138.69 387.008C138.065 386.486 137.217 386.193 136.333 386.193H109.667C108.783 386.193 107.935 386.486 107.31 387.008C106.685 387.53 106.333 388.238 106.333 388.977V447.433H96.3333C95.4493 447.433 94.6014 447.726 93.9763 448.248C93.3512 448.77 93 449.478 93 450.216C93 450.955 93.3512 451.663 93.9763 452.185C94.6014 452.707 95.4493 453 96.3333 453H289.667C290.551 453 291.399 452.707 292.024 452.185C292.649 451.663 293 450.955 293 450.216C293 449.478 292.649 448.77 292.024 448.248C291.399 447.726 290.551 447.433 289.667 447.433ZM133 447.433H113V391.76H133V447.433ZM179.667 447.433H159.667V375.058H179.667V447.433ZM226.333 447.433H206.333V358.357H226.333V447.433ZM273 447.433H253V336.088H273V447.433Z" fill="black"/>
<path d="M110.473 357.68C110.911 357.681 111.345 357.61 111.75 357.47C112.154 357.33 112.521 357.124 112.83 356.865L138.76 335.214L157.617 350.961C158.242 351.482 159.089 351.776 159.973 351.776C160.857 351.776 161.705 351.482 162.33 350.961L190.613 327.342L211.827 345.057C212.452 345.578 213.299 345.872 214.183 345.872C215.067 345.872 215.915 345.578 216.54 345.057L262.843 306.386L263 313.869C263.016 314.598 263.374 315.294 263.997 315.805C264.621 316.316 265.46 316.602 266.333 316.602H266.393C266.831 316.596 267.263 316.517 267.664 316.371C268.066 316.225 268.429 316.015 268.733 315.752C269.037 315.489 269.276 315.178 269.436 314.838C269.596 314.497 269.675 314.134 269.667 313.769L269.373 299.736C269.358 299.006 269.001 298.31 268.377 297.799C267.754 297.287 266.914 297 266.04 297H266L249.637 297.117C248.753 297.12 247.906 297.417 247.284 297.941C246.662 298.465 246.314 299.175 246.318 299.913C246.322 300.651 246.677 301.358 247.305 301.878C247.933 302.397 248.783 302.687 249.667 302.684H249.697L257.923 302.626L214.183 339.15L192.97 321.435C192.345 320.913 191.497 320.62 190.613 320.62C189.729 320.62 188.882 320.913 188.257 321.435L159.973 345.054L141.117 329.307C140.492 328.785 139.644 328.492 138.76 328.492C137.876 328.492 137.028 328.785 136.403 329.307L108.117 352.929C107.651 353.318 107.333 353.814 107.205 354.354C107.076 354.894 107.142 355.453 107.394 355.962C107.647 356.47 108.074 356.905 108.622 357.211C109.17 357.517 109.814 357.68 110.473 357.68Z" fill="black"/>
</svg>
