<svg width="386" height="474" viewBox="0 0 386 474" fill="none" xmlns="http://www.w3.org/2000/svg">
<path d="M6 6H380V234.884V468H6V6Z" fill="#FEFEFE" stroke="black" stroke-width="12"/>
<line x1="61" y1="365.5" x2="325" y2="365.5" stroke="black" stroke-width="13"/>
<line x1="61" y1="278.5" x2="325" y2="278.5" stroke="black" stroke-width="13"/>
<line x1="61" y1="206.5" x2="325" y2="206.5" stroke="black" stroke-width="13"/>
<rect x="61" y="44" width="264" height="104" fill="#71BF44"/>
<path d="M161.816 90.9062H167.23C169.809 90.9062 171.719 90.2617 172.961 88.9727C174.203 87.6836 174.824 85.9727 174.824 83.8398C174.824 81.7773 174.203 80.1719 172.961 79.0234C171.742 77.875 170.055 77.3008 167.898 77.3008C165.953 77.3008 164.324 77.8398 163.012 78.918C161.699 79.9727 161.043 81.3555 161.043 83.0664H150.883C150.883 80.3945 151.598 78.0039 153.027 75.8945C154.48 73.7617 156.496 72.0977 159.074 70.9023C161.676 69.707 164.535 69.1094 167.652 69.1094C173.066 69.1094 177.309 70.4102 180.379 73.0117C183.449 75.5898 184.984 79.1523 184.984 83.6992C184.984 86.043 184.27 88.1992 182.84 90.168C181.41 92.1367 179.535 93.6484 177.215 94.7031C180.098 95.7344 182.242 97.2812 183.648 99.3438C185.078 101.406 185.793 103.844 185.793 106.656C185.793 111.203 184.129 114.848 180.801 117.59C177.496 120.332 173.113 121.703 167.652 121.703C162.543 121.703 158.359 120.355 155.102 117.66C151.867 114.965 150.25 111.402 150.25 106.973H160.41C160.41 108.895 161.125 110.465 162.555 111.684C164.008 112.902 165.789 113.512 167.898 113.512C170.312 113.512 172.199 112.879 173.559 111.613C174.941 110.324 175.633 108.625 175.633 106.516C175.633 101.406 172.82 98.8516 167.195 98.8516H161.816V90.9062ZM193.914 121V69.8125H209.664C214.164 69.8125 218.184 70.832 221.723 72.8711C225.285 74.8867 228.062 77.7695 230.055 81.5195C232.047 85.2461 233.043 89.4883 233.043 94.2461V96.6016C233.043 101.359 232.059 105.59 230.09 109.293C228.145 112.996 225.391 115.867 221.828 117.906C218.266 119.945 214.246 120.977 209.77 121H193.914ZM204.461 78.3555V112.527H209.559C213.684 112.527 216.836 111.18 219.016 108.484C221.195 105.789 222.309 101.934 222.355 96.918V94.2109C222.355 89.0078 221.277 85.0703 219.121 82.3984C216.965 79.7031 213.812 78.3555 209.664 78.3555H204.461Z" fill="white"/>
</svg>
