<svg width="416" height="416" viewBox="0 0 416 416" fill="none" xmlns="http://www.w3.org/2000/svg">
<g clip-path="url(#clip0)">
<path d="M408.26 319.76C404.118 319.76 400.76 323.118 400.76 327.26C400.76 367.788 367.788 400.76 327.26 400.76C323.118 400.76 319.76 404.118 319.76 408.26C319.76 412.402 323.118 415.76 327.26 415.76C376.059 415.76 415.76 376.059 415.76 327.26C415.76 323.118 412.402 319.76 408.26 319.76Z" fill="black"/>
<path d="M327.26 388.76C361.171 388.76 388.76 361.171 388.76 327.26C388.76 323.118 385.402 319.76 381.26 319.76C377.118 319.76 373.76 323.118 373.76 327.26C373.76 352.9 352.9 373.76 327.26 373.76C323.118 373.76 319.76 377.118 319.76 381.26C319.76 385.402 323.118 388.76 327.26 388.76Z" fill="black"/>
<path d="M327.26 361.76C346.283 361.76 361.76 346.283 361.76 327.26C361.76 323.118 358.402 319.76 354.26 319.76C350.118 319.76 346.76 323.118 346.76 327.26C346.76 338.012 338.012 346.76 327.26 346.76C323.118 346.76 319.76 350.118 319.76 354.26C319.76 358.402 323.118 361.76 327.26 361.76Z" fill="black"/>
<path d="M322.938 333.545C324.402 335.009 326.322 335.741 328.241 335.741C330.16 335.741 332.08 335.009 333.544 333.544C336.473 330.615 336.473 325.866 333.544 322.937L330.91 320.303L370.154 281.059C371.561 279.653 372.351 277.745 372.351 275.756C372.351 273.767 371.561 271.859 370.154 270.453C350.735 251.034 322.717 245.352 298.247 253.371L286.341 241.465L305.211 222.595C308.14 219.666 308.14 214.917 305.211 211.989L256.959 163.737L276.014 144.682L299.702 168.37C301.166 169.834 303.086 170.567 305.005 170.567C306.924 170.567 308.844 169.835 310.308 168.37L407.891 70.787C409.298 69.381 410.088 67.473 410.088 65.484C410.088 63.495 409.298 61.587 407.891 60.181L349.91 2.197C348.504 0.79 346.596 0 344.607 0C342.618 0 340.71 0.79 339.304 2.197L241.721 99.78C240.314 101.186 239.524 103.094 239.524 105.083C239.524 107.072 240.314 108.98 241.721 110.386L265.409 134.074L246.354 153.129L209.96 116.735C195.516 102.292 173.03 100.695 156.793 111.919L139.8 94.927C136.871 91.998 132.122 91.998 129.194 94.927L94.927 129.194C93.52 130.6 92.73 132.508 92.73 134.497C92.73 136.486 93.52 138.394 94.927 139.8L111.914 156.786C107.117 163.699 104.525 171.888 104.525 180.48C104.525 191.616 108.862 202.084 116.736 209.959L153.13 246.353L134.075 265.408L110.387 241.72C107.458 238.791 102.709 238.791 99.781 241.72L2.19699 339.304C-0.732006 342.233 -0.732006 346.982 2.19699 349.91L60.18 407.893C61.644 409.357 63.564 410.09 65.483 410.09C67.402 410.09 69.322 409.358 70.786 407.893L168.369 310.31C171.298 307.381 171.298 302.632 168.369 299.704L144.681 276.016L163.736 256.961L211.988 305.213C213.394 306.62 215.302 307.41 217.291 307.41C219.28 307.41 221.188 306.62 222.594 305.213L241.468 286.339L253.372 298.243C245.351 322.714 251.031 350.735 270.452 370.156C271.916 371.621 273.836 372.353 275.755 372.353C277.674 372.353 279.594 371.621 281.058 370.156L320.302 330.912L322.938 333.545ZM337.485 119.981L290.109 72.605L312.13 50.584L359.506 97.96L337.485 119.981ZM344.607 18.107L391.983 65.483L370.111 87.355L322.735 39.979L344.607 18.107ZM279.502 83.212L326.878 130.588L305.006 152.46L257.63 105.084L279.502 83.212ZM72.605 290.108L119.981 337.484L97.96 359.505L50.584 312.129L72.605 290.108ZM65.483 391.983L18.107 344.607L39.979 322.735L87.355 370.111L65.483 391.983ZM130.588 326.878L83.212 279.502L105.084 257.63L152.46 305.006L130.588 326.878ZM205.651 133.64L269.287 197.276L197.276 269.287L133.64 205.651L205.651 133.64ZM180.482 119.538C185.368 119.538 190.252 120.876 194.543 123.536L123.531 194.548C120.926 190.365 119.526 185.532 119.526 180.481C119.526 173.352 122.302 166.65 127.343 161.609L161.61 127.342C166.813 122.139 173.646 119.538 180.482 119.538ZM134.497 110.837L145.699 122.039L133.869 133.869L122.039 145.699L110.836 134.497L134.497 110.837ZM217.291 289.303L207.882 279.894L279.893 207.883L289.302 217.292L217.291 289.303ZM252.076 275.733L275.736 252.073L283.714 260.051C278.991 262.919 274.528 266.376 270.451 270.452C266.376 274.527 262.92 278.989 260.053 283.71L252.076 275.733ZM276.112 353.888C259.567 332.151 261.216 300.901 281.058 281.059C291.878 270.239 306.09 264.83 320.303 264.83C332.154 264.83 344.003 268.59 353.887 276.113L276.112 353.888Z" fill="black"/>
</g>
<defs>
<clipPath id="clip0">
<rect width="415.76" height="415.76" fill="white"/>
</clipPath>
</defs>
</svg>
